HIERARCHY
ROOT hip
{
	OFFSET 0.000000 0.000000 0.000000
	CHANNELS 6 Xposition Yposition Zposition Xrotation Zrotation Yrotation 
	JOINT abdomen
	{
		OFFSET 0.000000 3.422050 0.000000
		CHANNELS 3 Xrotation Zrotation Yrotation 
		JOINT chest
		{
			OFFSET 0.000000 8.486693 -0.684411
			CHANNELS 3 Xrotation Zrotation Yrotation 
			JOINT neck
			{
				OFFSET 0.000000 10.266162 -0.273764
				CHANNELS 3 Xrotation Zrotation Yrotation 
				JOINT head
				{
					OFFSET 0.000000 3.148285 0.000000
					CHANNELS 3 Xrotation Zrotation Yrotation 
					End Site
					{
						OFFSET 0.000000 3.148289 0.000000
					}
				}
			}
			JOINT lCollar
			{
				OFFSET 3.422053 6.707223 -0.821293
				CHANNELS 3 Yrotation Zrotation Xrotation 
				JOINT lShldr
				{
					OFFSET 3.285171 0.000000 0.000000
					CHANNELS 3 Zrotation Yrotation Xrotation 
					JOINT lForeArm
					{
						OFFSET 10.129278 0.000000 0.000000
						CHANNELS 3 Yrotation Zrotation Xrotation 
						JOINT lHand
						{
							OFFSET 8.486692 0.000000 0.000000
							CHANNELS 3 Zrotation Yrotation Xrotation 
							End Site
							{
								OFFSET 4.106464 0.000000 0.000000
							}
						}
					}
				}
			}
			JOINT rCollar
			{
				OFFSET -3.558935 6.707223 -0.821293
				CHANNELS 3 Yrotation Zrotation Xrotation 
				JOINT rShldr
				{
					OFFSET -3.148289 0.000000 0.000000
					CHANNELS 3 Zrotation Yrotation Xrotation 
					JOINT rForeArm
					{
						OFFSET -10.266159 0.000000 0.000000
						CHANNELS 3 Yrotation Zrotation Xrotation 
						JOINT rHand
						{
							OFFSET -8.349810 0.000000 0.000000
							CHANNELS 3 Zrotation Yrotation Xrotation 
							End Site
							{
								OFFSET -4.106464 0.000000 0.000000
							}
						}
					}
				}
			}
		}
	}
	JOINT lThigh
	{
		OFFSET 5.338403 -1.642589 1.368821
		CHANNELS 3 Xrotation Zrotation Yrotation 
		JOINT lShin
		{
			OFFSET -2.053232 -20.121670 0.000000
			CHANNELS 3 Xrotation Zrotation Yrotation 
			JOINT lFoot
			{
				OFFSET 0.000000 -19.300380 -1.231939
				CHANNELS 3 Xrotation Yrotation Zrotation 
				End Site
				{
					OFFSET 0.000000 -2.463878 4.653993
				}
			}
		}
	}
	JOINT rThigh
	{
		OFFSET -5.338403 -1.642589 1.368821
		CHANNELS 3 Xrotation Zrotation Yrotation 
		JOINT rShin
		{
			OFFSET 2.053232 -20.121670 0.000000
			CHANNELS 3 Xrotation Zrotation Yrotation 
			JOINT rFoot
			{
				OFFSET 0.000000 -19.300380 -1.231939
				CHANNELS 3 Xrotation Yrotation Zrotation 
				End Site
				{
					OFFSET 0.000000 -2.463878 4.653993
				}
			}
		}
	}
}
MOTION
Frames: 8
Frame Time: 0.049989
0.000000 43.528500 0.000000 0.000000 0.000000 0.000000 0.000000 0.000000 0.000000 0.000000 0.000000 0.000000 0.000000 0.000000 0.000000 0.000000 0.000000 0.000000 0.000000 0.000000 0.000000 0.000000 0.000000 0.000000 0.000000 0.000000 0.000000 0.000000 0.000000 0.000000 0.000000 0.000000 0.000000 0.000000 0.000000 0.000000 0.000000 0.000000 0.000000 0.000000 0.000000 0.000000 0.000000 0.000000 0.000000 0.000000 0.000000 0.000000 0.000000 0.000000 0.000000 0.000000 0.000000 0.000000 0.000000 0.000000 0.000000 0.000000 0.000000 0.000000 
0.000000 5.996777 0.000000 -98.002960 0.000000 0.000000 12.282707 -0.095276 -0.078838 -8.037477 -0.060579 -0.937046 39.997601 0.000000 0.000000 8.998567 0.000000 0.000000 7.299263 16.570438 2.479026 19.248386 -28.211340 -86.324654 -133.016846 4.596831 36.239395 -7.325625 -23.290560 -11.054725 -7.302869 -16.574039 2.478291 -19.247828 28.206516 -86.322556 132.987335 -4.607988 36.241737 7.322171 23.286667 -11.055592 12.979889 42.525696 42.669319 66.793053 32.837029 3.542182 0.000000 0.000000 -11.895801 12.983911 -42.528652 -42.675793 66.795052 -32.838066 -3.547834 0.000000 0.000000 11.892273 
0.000000 5.996777 0.000000 -98.002960 0.000000 0.000000 12.897676 -0.095196 -0.078857 -8.959231 -0.060586 -0.936945 39.459316 0.000000 0.000000 7.694529 0.000000 0.000000 7.299263 16.570438 2.479026 19.248386 -28.211340 -86.324654 -133.016846 4.596831 36.239395 -7.325625 -23.290560 -11.054726 -7.302870 -16.574041 2.478291 -19.247828 28.206516 -86.322556 132.987335 -4.607988 36.241737 7.322171 23.286669 -11.055593 12.979889 42.525696 42.669319 66.254730 32.836910 3.542249 0.000000 0.000000 -11.895802 12.983911 -42.528652 -42.675793 66.333733 -32.837776 -3.547855 0.000000 0.000000 11.892273 
0.000000 5.996777 0.000000 -98.002960 0.000000 0.000000 13.512839 -0.095115 -0.078876 -9.881643 -0.060592 -0.936843 38.920891 0.000000 0.000000 6.388619 0.000000 0.000000 7.299263 16.570440 2.479026 19.248386 -28.211342 -86.324654 -133.016861 4.596832 36.239399 -7.325626 -23.290562 -11.054724 -7.302869 -16.574039 2.478291 -19.247828 28.206516 -86.322556 132.987335 -4.607988 36.241737 7.322172 23.286669 -11.055593 12.979890 42.525700 42.669323 65.716293 32.836803 3.542319 0.000000 0.000000 -11.895801 12.983912 -42.528652 -42.675797 65.872314 -32.837479 -3.547875 0.000000 0.000000 11.892273 
0.000000 5.996777 0.000000 -98.002953 0.000000 0.000000 14.128166 -0.095034 -0.078894 -10.804595 -0.060596 -0.936741 38.382366 0.000000 0.000000 5.081179 0.000000 0.000000 7.299263 16.570436 2.479026 19.248386 -28.211340 -86.324654 -133.016846 4.596829 36.239391 -7.325625 -23.290558 -11.054725 -7.302869 -16.574039 2.478291 -19.247828 28.206516 -86.322556 132.987320 -4.607987 36.241734 7.322170 23.286663 -11.055591 12.979889 42.525696 42.669319 65.177750 32.836700 3.542393 0.000000 0.000000 -11.895801 12.983911 -42.528648 -42.675793 65.410835 -32.837177 -3.547901 0.000000 0.000000 11.892272 
0.000000 5.996777 0.000000 -98.002960 0.000000 0.000000 14.743612 -0.094953 -0.078910 -11.727967 -0.060599 -0.936640 37.843750 0.000000 0.000000 3.772543 0.000000 0.000000 7.299263 16.570438 2.479026 19.248386 -28.211340 -86.324654 -133.016846 4.596832 36.239391 -7.325625 -23.290560 -11.054724 -7.302869 -16.574039 2.478291 -19.247828 28.206516 -86.322556 132.987320 -4.607989 36.241737 7.322170 23.286665 -11.055591 12.979889 42.525696 42.669319 64.639107 32.836590 3.542465 0.000000 0.000000 -11.895800 12.983911 -42.528652 -42.675793 64.949333 -32.836891 -3.547935 0.000000 0.000000 11.892273 
0.000000 5.996777 0.000000 -98.002960 0.000000 0.000000 15.359156 -0.094872 -0.078926 -12.651638 -0.060600 -0.936538 37.305088 0.000000 0.000000 2.463051 0.000000 0.000000 7.299263 16.570438 2.479026 19.248386 -28.211340 -86.324654 -133.016846 4.596831 36.239395 -7.325625 -23.290560 -11.054725 -7.302869 -16.574039 2.478291 -19.247828 28.206516 -86.322556 132.987335 -4.607988 36.241737 7.322171 23.286665 -11.055592 12.979889 42.525692 42.669319 64.100441 32.836483 3.542544 0.000000 0.000000 -11.895801 12.983911 -42.528652 -42.675793 64.487770 -32.836597 -3.547966 0.000000 0.000000 11.892273 
0.000000 5.996777 0.000000 -98.002960 0.000000 0.000000 15.974746 -0.094791 -0.078941 -13.575491 -0.060599 -0.936436 36.766384 0.000000 0.000000 1.153047 0.000000 0.000000 7.299263 16.570438 2.479026 19.248386 -28.211340 -86.324654 -133.016846 4.596831 36.239395 -7.325625 -23.290560 -11.054725 -7.302869 -16.574041 2.478291 -19.247828 28.206516 -86.322556 132.987335 -4.607988 36.241737 7.322171 23.286667 -11.055592 12.979889 42.525696 42.669319 63.561707 32.836376 3.542616 0.000000 0.000000 -11.895801 12.983911 -42.528652 -42.675793 64.026176 -32.836300 -3.547996 0.000000 0.000000 11.892273 
